<svg width="54" height="54" viewBox="0 0 54 54" fill="none" xmlns="http://www.w3.org/2000/svg">
<path d="M33.8932 10.492C33.3757 9.97446 33.3757 9.13527 33.8932 8.61774L36.2196 6.29154C36.7371 5.77414 37.5764 5.77401 38.0938 6.29154C38.6114 6.80908 38.6114 7.64827 38.0938 8.1658L35.7675 10.492C35.5088 10.7507 35.1695 10.8802 34.8304 10.8802C34.4912 10.8802 34.1519 10.7508 33.8932 10.492ZM23.4971 10.492C23.7559 10.7508 24.095 10.8802 24.4342 10.8802C24.7733 10.8802 25.1126 10.7507 25.3713 10.492C25.8889 9.97446 25.889 9.13527 25.3713 8.61774L23.0453 6.29154C22.5279 5.77401 21.6885 5.77401 21.171 6.29154C20.6535 6.80908 20.6533 7.64827 21.171 8.1658L23.4971 10.492ZM29.7902 8.55399C30.5222 8.55399 31.1155 7.96065 31.1155 7.22867V3.93884C31.1155 3.20687 30.5222 2.61353 29.7902 2.61353C29.0582 2.61353 28.4649 3.20687 28.4649 3.93884V7.22867C28.4649 7.96065 29.0582 8.55399 29.7902 8.55399ZM42.4191 30.0684C42.7061 30.4726 42.7434 31.0033 42.5159 31.4437C42.2884 31.8842 41.8341 32.1608 41.3383 32.1608H28.9416C28.2096 32.1608 27.6163 31.5674 27.6163 30.8355V23.7613C27.6163 23.0294 28.2096 22.436 28.9416 22.436H36.3172C36.7466 22.436 37.1494 22.6441 37.398 22.9942L42.4191 30.0684ZM38.7725 29.5102L35.6328 25.0866H30.267V29.5102H38.7725ZM18.1669 25.8904H15.8725V23.5961C15.8725 22.8641 15.2792 22.2707 14.5472 22.2707C13.8152 22.2707 13.2219 22.8641 13.2219 23.5961V25.8904H10.9275C10.1955 25.8904 9.60218 26.4838 9.60218 27.2158C9.60218 27.9477 10.1955 28.5411 10.9275 28.5411H13.2219V30.8356C13.2219 31.5676 13.8152 32.1609 14.5472 32.1609C15.2792 32.1609 15.8725 31.5676 15.8725 30.8356V28.5411H18.1669C18.8989 28.5411 19.4922 27.9477 19.4922 27.2158C19.4922 26.4838 18.8989 25.8904 18.1669 25.8904ZM47.4777 44.9782C47.2309 46.4009 46.594 47.6918 45.6817 48.7359H52.6742C53.4061 48.7359 53.9995 49.3292 53.9995 50.0612C53.9995 50.7931 53.4061 51.3865 52.6742 51.3865H1.40656C0.674586 51.3865 0.0812419 50.7931 0.0812419 50.0612C0.0812419 49.3292 0.674586 48.7359 1.40656 48.7359H8.39866C7.48631 47.6919 6.84937 46.4008 6.60246 44.9782H1.32532C0.593344 44.9782 0 44.3848 0 43.6529V18.0182C0 17.2862 0.593344 16.6929 1.32532 16.6929H25.3626V14.9408C25.3626 12.5134 27.3376 10.5384 29.7651 10.5384H29.8156C32.243 10.5384 34.2177 12.5132 34.2177 14.9408V16.6929H39.8574C40.2868 16.6929 40.6896 16.901 40.9382 17.2511L53.7553 35.3084C53.9144 35.5325 53.9999 35.8006 53.9999 36.0755V43.653C53.9999 44.385 53.4065 44.9783 52.6746 44.9783H47.4777V44.9782ZM28.0132 16.6929H31.567V14.9408C31.567 13.9749 30.7814 13.189 29.8156 13.189H29.7651C28.7991 13.189 28.0132 13.9749 28.0132 14.9408V16.6929ZM19.3059 43.6529C19.3059 40.8501 17.0255 38.5698 14.2228 38.5698C11.42 38.5698 9.13964 40.8501 9.13938 43.6529C9.13951 46.4554 11.42 48.7357 14.2228 48.7357C17.0255 48.7359 19.3059 46.4556 19.3059 43.6529ZM34.0335 48.7359C33.1211 47.6919 32.4842 46.4008 32.2373 44.9782H21.8429C21.5962 46.4009 20.9592 47.6918 20.0469 48.7359H34.0335ZM44.9407 43.6529C44.9407 40.8501 42.6603 38.5698 39.8576 38.5698C37.0548 38.5698 34.7744 40.8501 34.7742 43.6529C34.7743 46.4554 37.0548 48.7357 39.8576 48.7357C42.6605 48.7359 44.9407 46.4556 44.9407 43.6529ZM47.4777 42.3276H51.3494V36.4979L39.173 19.3434H2.65063V42.3276H6.60233C7.23304 38.6923 10.4102 35.9191 14.2226 35.9191C18.0353 35.9191 21.2123 38.6925 21.8428 42.3276H32.2371C32.8678 38.6923 36.045 35.9191 39.8574 35.9191C43.6701 35.9193 46.8473 38.6926 47.4777 42.3276ZM39.8576 42.1876C39.0482 42.1876 38.392 42.8436 38.392 43.653C38.392 44.4622 39.0483 45.1184 39.8576 45.1184C40.6667 45.1184 41.3228 44.4622 41.3228 43.653C41.3228 42.8436 40.6667 42.1876 39.8576 42.1876ZM14.2226 42.1876C13.4131 42.1876 12.7574 42.8436 12.7574 43.653C12.7574 44.4622 13.4131 45.1184 14.2226 45.1184C15.0319 45.1184 15.6879 44.4622 15.6879 43.653C15.688 42.8436 15.032 42.1876 14.2226 42.1876Z" fill="white"/>
</svg>
