<svg width="54" height="54" viewBox="0 0 54 54" fill="none" xmlns="http://www.w3.org/2000/svg">
<path d="M11.9849 20.1293C11.6094 19.884 11.1355 19.8448 10.7248 20.0246C7.29854 21.5268 5.08464 24.9032 5.08464 28.6265C5.08464 32.3498 7.29854 35.7262 10.7248 37.2284C10.8955 37.3032 11.0771 37.3401 11.258 37.3401C11.5125 37.3401 11.7655 37.267 11.9849 37.1237C12.3603 36.8783 12.5867 36.4601 12.5867 36.0115V21.2415C12.5867 20.7929 12.3605 20.3746 11.9849 20.1293ZM9.92961 33.5824C8.55947 32.3271 7.74175 30.5404 7.74175 28.6265C7.74175 26.7126 8.55947 24.9259 9.92961 23.6706V33.5824ZM39.7753 48.3948C39.7753 49.1286 39.1804 49.7234 38.4468 49.7234L12.1466 49.7237H11.638C8.13474 49.7237 5.28459 47.2237 5.28459 44.1508C5.28459 43.417 5.87938 42.8222 6.61314 42.8222C7.3469 42.8222 7.9417 43.417 7.9417 44.1508C7.9417 45.7312 9.63441 47.0666 11.638 47.0666L38.4468 47.0663C39.1804 47.0663 39.7753 47.6611 39.7753 48.3948ZM5.08796 5.60492C5.08796 4.87116 5.68276 4.27637 6.41652 4.27637H31.052C31.7857 4.27637 32.3806 4.87116 32.3806 5.60492C32.3806 6.33868 31.7857 6.93347 31.052 6.93347H6.41652C5.68276 6.93347 5.08796 6.33868 5.08796 5.60492ZM27.6084 27.978C27.6084 28.7118 27.0136 29.3066 26.2799 29.3066H23.9793V31.6067C23.9793 32.3405 23.3845 32.9353 22.6508 32.9353C21.917 32.9353 21.3222 32.3405 21.3222 31.6067V29.3066H19.0228C18.289 29.3066 17.6942 28.7118 17.6942 27.978C17.6942 27.2443 18.289 26.6495 19.0228 26.6495H21.3222V24.3495C21.3222 23.6157 21.917 23.0209 22.6508 23.0209C23.3845 23.0209 23.9793 23.6157 23.9793 24.3495V26.6495H26.2799C27.0136 26.6495 27.6084 27.2443 27.6084 27.978ZM54 26.4259C54 27.1596 53.4051 27.7544 52.6714 27.7544H45.3536C44.62 27.7544 44.0251 27.1596 44.0251 26.4259C44.0251 25.6921 44.62 25.0973 45.3536 25.0973H52.6714C53.4051 25.0973 54 25.6921 54 26.4259ZM50.3408 30.5564C50.3408 29.8226 49.7458 29.2278 49.0122 29.2278C48.2786 29.2278 47.6837 29.8226 47.6837 30.5564V36.0829L34.7786 32.3769V28.6265C34.7786 20.8092 28.4187 14.4492 20.6014 14.4492H20.063V9.72862C20.063 8.99486 19.4682 8.40007 18.7345 8.40007C18.0007 8.40007 17.4059 8.99486 17.4059 9.72862V14.4492H14.1773C6.35992 14.4492 0 20.809 0 28.6265C0 36.1303 5.86025 42.2913 13.2444 42.7733V43.8273C13.2444 44.561 13.8391 45.1558 14.5729 45.1558C15.3067 45.1558 15.9015 44.561 15.9015 43.8273V42.8038H31.3549V43.8273C31.3549 44.561 31.9499 45.1558 32.6835 45.1558C33.4171 45.1558 34.012 44.561 34.012 43.8273V42.8038H49.0126C49.7462 42.8038 50.3412 42.209 50.3412 41.4752V37.8467C50.3412 37.8342 50.341 37.8218 50.3406 37.8095V30.5564H50.3408ZM47.6837 40.1467H14.1773C7.82505 40.1467 2.65711 34.9787 2.65711 28.6265C2.65711 22.2743 7.82505 17.1063 14.1773 17.1063H20.6014C26.9536 17.1063 32.1215 22.2743 32.1215 28.6265V33.3777C32.1215 33.9702 32.5138 34.491 33.0834 34.6545L47.6837 38.8473V40.1467Z" fill="white"/>
</svg>
